<?xml version="1.0" encoding="UTF-8" standalone="no"?>
<!DOCTYPE svg PUBLIC "-//W3C//DTD SVG 1.1//EN"
 "http://www.w3.org/Graphics/SVG/1.1/DTD/svg11.dtd">
<!-- Generated by graphviz version 14.1.1 (20251213.1925)
 -->
<!-- Pages: 1 -->
<svg width="961pt" height="875pt"
 viewBox="0.00 0.00 961.00 875.00" xmlns="http://www.w3.org/2000/svg" xmlns:xlink="http://www.w3.org/1999/xlink">
<g id="graph0" class="graph" transform="scale(0.880037 0.880037) rotate(0) translate(4 990)">
<polygon fill="white" stroke="none" points="-4,4 -4,-990 1088,-990 1088,4 -4,4"/>
<!-- 3008017580512 -->
<g id="node1" class="node">
<title>3008017580512</title>
<polygon fill="#caff70" stroke="black" points="776,-32.75 712,-32.75 712,0 776,0 776,-32.75"/>
<text xml:space="preserve" text-anchor="middle" x="744" y="-7.25" font-family="monospace" font-size="10.00"> (32, 1)</text>
</g>
<!-- 3008017061376 -->
<g id="node2" class="node">
<title>3008017061376</title>
<polygon fill="lightgrey" stroke="black" points="800,-89.5 688,-89.5 688,-68.75 800,-68.75 800,-89.5"/>
<text xml:space="preserve" text-anchor="middle" x="744" y="-76" font-family="monospace" font-size="10.00">SigmoidBackward0</text>
</g>
<!-- 3008017061376&#45;&gt;3008017580512 -->
<g id="edge44" class="edge">
<title>3008017061376&#45;&gt;3008017580512</title>
<path fill="none" stroke="black" d="M744,-68.36C744,-61.89 744,-53.05 744,-44.55"/>
<polygon fill="black" stroke="black" points="747.5,-44.55 744,-34.55 740.5,-44.55 747.5,-44.55"/>
</g>
<!-- 3008017065120 -->
<g id="node3" class="node">
<title>3008017065120</title>
<polygon fill="lightgrey" stroke="black" points="794,-146.25 694,-146.25 694,-125.5 794,-125.5 794,-146.25"/>
<text xml:space="preserve" text-anchor="middle" x="744" y="-132.75" font-family="monospace" font-size="10.00">AddmmBackward0</text>
</g>
<!-- 3008017065120&#45;&gt;3008017061376 -->
<g id="edge1" class="edge">
<title>3008017065120&#45;&gt;3008017061376</title>
<path fill="none" stroke="black" d="M744,-125.09C744,-118.47 744,-109.47 744,-101.27"/>
<polygon fill="black" stroke="black" points="747.5,-101.34 744,-91.34 740.5,-101.34 747.5,-101.34"/>
</g>
<!-- 3008017059264 -->
<g id="node4" class="node">
<title>3008017059264</title>
<polygon fill="lightgrey" stroke="black" points="626,-203 526,-203 526,-182.25 626,-182.25 626,-203"/>
<text xml:space="preserve" text-anchor="middle" x="576" y="-189.5" font-family="monospace" font-size="10.00">AccumulateGrad</text>
</g>
<!-- 3008017059264&#45;&gt;3008017065120 -->
<g id="edge2" class="edge">
<title>3008017059264&#45;&gt;3008017065120</title>
<path fill="none" stroke="black" d="M606.04,-181.84C633.19,-172.99 673.38,-159.89 703.39,-150.11"/>
<polygon fill="black" stroke="black" points="704.08,-153.57 712.5,-147.14 701.91,-146.91 704.08,-153.57"/>
</g>
<!-- 3005650291200 -->
<g id="node5" class="node">
<title>3005650291200</title>
<polygon fill="lightblue" stroke="black" points="558,-272.5 494,-272.5 494,-239 558,-239 558,-272.5"/>
<text xml:space="preserve" text-anchor="middle" x="526" y="-259" font-family="monospace" font-size="10.00">fc3.bias</text>
<text xml:space="preserve" text-anchor="middle" x="526" y="-246.25" font-family="monospace" font-size="10.00"> (1)</text>
</g>
<!-- 3005650291200&#45;&gt;3008017059264 -->
<g id="edge3" class="edge">
<title>3005650291200&#45;&gt;3008017059264</title>
<path fill="none" stroke="black" d="M539.14,-238.69C545.78,-230.57 553.88,-220.67 560.79,-212.22"/>
<polygon fill="black" stroke="black" points="563.37,-214.59 566.99,-204.64 557.95,-210.16 563.37,-214.59"/>
</g>
<!-- 3008017061568 -->
<g id="node6" class="node">
<title>3008017061568</title>
<polygon fill="lightgrey" stroke="black" points="794,-203 694,-203 694,-182.25 794,-182.25 794,-203"/>
<text xml:space="preserve" text-anchor="middle" x="744" y="-189.5" font-family="monospace" font-size="10.00">AddmmBackward0</text>
</g>
<!-- 3008017061568&#45;&gt;3008017065120 -->
<g id="edge4" class="edge">
<title>3008017061568&#45;&gt;3008017065120</title>
<path fill="none" stroke="black" d="M744,-181.84C744,-175.22 744,-166.22 744,-158.02"/>
<polygon fill="black" stroke="black" points="747.5,-158.09 744,-148.09 740.5,-158.09 747.5,-158.09"/>
</g>
<!-- 3008017064256 -->
<g id="node7" class="node">
<title>3008017064256</title>
<polygon fill="lightgrey" stroke="black" points="676,-266.12 576,-266.12 576,-245.38 676,-245.38 676,-266.12"/>
<text xml:space="preserve" text-anchor="middle" x="626" y="-252.62" font-family="monospace" font-size="10.00">AccumulateGrad</text>
</g>
<!-- 3008017064256&#45;&gt;3008017061568 -->
<g id="edge5" class="edge">
<title>3008017064256&#45;&gt;3008017061568</title>
<path fill="none" stroke="black" d="M644.96,-244.93C663.88,-235.13 693.21,-219.93 715.05,-208.62"/>
<polygon fill="black" stroke="black" points="716.47,-211.83 723.74,-204.12 713.26,-205.61 716.47,-211.83"/>
</g>
<!-- 3005650291360 -->
<g id="node8" class="node">
<title>3005650291360</title>
<polygon fill="lightblue" stroke="black" points="548,-342 484,-342 484,-308.5 548,-308.5 548,-342"/>
<text xml:space="preserve" text-anchor="middle" x="516" y="-328.5" font-family="monospace" font-size="10.00">fc2.bias</text>
<text xml:space="preserve" text-anchor="middle" x="516" y="-315.75" font-family="monospace" font-size="10.00"> (120)</text>
</g>
<!-- 3005650291360&#45;&gt;3008017064256 -->
<g id="edge6" class="edge">
<title>3005650291360&#45;&gt;3008017064256</title>
<path fill="none" stroke="black" d="M542.35,-308.08C559.99,-297.26 583.08,-283.09 600.54,-272.38"/>
<polygon fill="black" stroke="black" points="602.09,-275.53 608.79,-267.31 598.43,-269.56 602.09,-275.53"/>
</g>
<!-- 3008017068960 -->
<g id="node9" class="node">
<title>3008017068960</title>
<polygon fill="lightgrey" stroke="black" points="794,-266.12 694,-266.12 694,-245.38 794,-245.38 794,-266.12"/>
<text xml:space="preserve" text-anchor="middle" x="744" y="-252.62" font-family="monospace" font-size="10.00">AddmmBackward0</text>
</g>
<!-- 3008017068960&#45;&gt;3008017061568 -->
<g id="edge7" class="edge">
<title>3008017068960&#45;&gt;3008017061568</title>
<path fill="none" stroke="black" d="M744,-244.93C744,-236.77 744,-224.88 744,-214.6"/>
<polygon fill="black" stroke="black" points="747.5,-214.73 744,-204.73 740.5,-214.73 747.5,-214.73"/>
</g>
<!-- 3008017070304 -->
<g id="node10" class="node">
<title>3008017070304</title>
<polygon fill="lightgrey" stroke="black" points="666,-335.62 566,-335.62 566,-314.88 666,-314.88 666,-335.62"/>
<text xml:space="preserve" text-anchor="middle" x="616" y="-322.12" font-family="monospace" font-size="10.00">AccumulateGrad</text>
</g>
<!-- 3008017070304&#45;&gt;3008017068960 -->
<g id="edge8" class="edge">
<title>3008017070304&#45;&gt;3008017068960</title>
<path fill="none" stroke="black" d="M634.61,-314.43C655.85,-303.24 690.82,-284.8 715.49,-271.78"/>
<polygon fill="black" stroke="black" points="716.81,-275.04 724.03,-267.28 713.55,-268.85 716.81,-275.04"/>
</g>
<!-- 3005650291440 -->
<g id="node11" class="node">
<title>3005650291440</title>
<polygon fill="lightblue" stroke="black" points="588,-411.5 524,-411.5 524,-378 588,-378 588,-411.5"/>
<text xml:space="preserve" text-anchor="middle" x="556" y="-398" font-family="monospace" font-size="10.00">fc1.bias</text>
<text xml:space="preserve" text-anchor="middle" x="556" y="-385.25" font-family="monospace" font-size="10.00"> (600)</text>
</g>
<!-- 3005650291440&#45;&gt;3008017070304 -->
<g id="edge9" class="edge">
<title>3005650291440&#45;&gt;3008017070304</title>
<path fill="none" stroke="black" d="M570.22,-377.75C579.12,-367.74 590.61,-354.82 599.85,-344.42"/>
<polygon fill="black" stroke="black" points="602.24,-347 606.26,-337.2 597,-342.35 602.24,-347"/>
</g>
<!-- 3008017068480 -->
<g id="node12" class="node">
<title>3008017068480</title>
<polygon fill="lightgrey" stroke="black" points="778,-335.62 684,-335.62 684,-314.88 778,-314.88 778,-335.62"/>
<text xml:space="preserve" text-anchor="middle" x="731" y="-322.12" font-family="monospace" font-size="10.00">ViewBackward0</text>
</g>
<!-- 3008017068480&#45;&gt;3008017068960 -->
<g id="edge10" class="edge">
<title>3008017068480&#45;&gt;3008017068960</title>
<path fill="none" stroke="black" d="M732.86,-314.58C734.72,-304.96 737.62,-289.88 740,-277.54"/>
<polygon fill="black" stroke="black" points="743.4,-278.37 741.85,-267.89 736.53,-277.05 743.4,-278.37"/>
</g>
<!-- 3008017065504 -->
<g id="node13" class="node">
<title>3008017065504</title>
<polygon fill="lightgrey" stroke="black" points="796,-405.12 606,-405.12 606,-384.38 796,-384.38 796,-405.12"/>
<text xml:space="preserve" text-anchor="middle" x="701" y="-391.62" font-family="monospace" font-size="10.00">MaxPool2DWithIndicesBackward0</text>
</g>
<!-- 3008017065504&#45;&gt;3008017068480 -->
<g id="edge11" class="edge">
<title>3008017065504&#45;&gt;3008017068480</title>
<path fill="none" stroke="black" d="M705.3,-384.08C709.66,-374.25 716.56,-358.75 722.1,-346.27"/>
<polygon fill="black" stroke="black" points="725.23,-347.85 726.09,-337.29 718.84,-345 725.23,-347.85"/>
</g>
<!-- 3008017065216 -->
<g id="node14" class="node">
<title>3008017065216</title>
<polygon fill="lightgrey" stroke="black" points="748,-474.62 654,-474.62 654,-453.88 748,-453.88 748,-474.62"/>
<text xml:space="preserve" text-anchor="middle" x="701" y="-461.12" font-family="monospace" font-size="10.00">ReluBackward0</text>
</g>
<!-- 3008017065216&#45;&gt;3008017065504 -->
<g id="edge12" class="edge">
<title>3008017065216&#45;&gt;3008017065504</title>
<path fill="none" stroke="black" d="M701,-453.58C701,-443.96 701,-428.88 701,-416.54"/>
<polygon fill="black" stroke="black" points="704.5,-416.92 701,-406.92 697.5,-416.92 704.5,-416.92"/>
</g>
<!-- 3008017068192 -->
<g id="node15" class="node">
<title>3008017068192</title>
<polygon fill="lightgrey" stroke="black" points="778,-537.75 624,-537.75 624,-517 778,-517 778,-537.75"/>
<text xml:space="preserve" text-anchor="middle" x="701" y="-524.25" font-family="monospace" font-size="10.00">CudnnBatchNormBackward0</text>
</g>
<!-- 3008017068192&#45;&gt;3008017065216 -->
<g id="edge13" class="edge">
<title>3008017068192&#45;&gt;3008017065216</title>
<path fill="none" stroke="black" d="M701,-516.55C701,-508.4 701,-496.51 701,-486.23"/>
<polygon fill="black" stroke="black" points="704.5,-486.36 701,-476.36 697.5,-486.36 704.5,-486.36"/>
</g>
<!-- 3008017069632 -->
<g id="node16" class="node">
<title>3008017069632</title>
<polygon fill="lightgrey" stroke="black" points="582,-594.5 446,-594.5 446,-573.75 582,-573.75 582,-594.5"/>
<text xml:space="preserve" text-anchor="middle" x="514" y="-581" font-family="monospace" font-size="10.00">ConvolutionBackward0</text>
</g>
<!-- 3008017069632&#45;&gt;3008017068192 -->
<g id="edge14" class="edge">
<title>3008017069632&#45;&gt;3008017068192</title>
<path fill="none" stroke="black" d="M547.43,-573.34C577.92,-564.41 623.18,-551.16 656.67,-541.35"/>
<polygon fill="black" stroke="black" points="657.48,-544.76 666.09,-538.6 655.51,-538.05 657.48,-544.76"/>
</g>
<!-- 3008017055904 -->
<g id="node17" class="node">
<title>3008017055904</title>
<polygon fill="lightgrey" stroke="black" points="394,-657.62 204,-657.62 204,-636.88 394,-636.88 394,-657.62"/>
<text xml:space="preserve" text-anchor="middle" x="299" y="-644.12" font-family="monospace" font-size="10.00">MaxPool2DWithIndicesBackward0</text>
</g>
<!-- 3008017055904&#45;&gt;3008017069632 -->
<g id="edge15" class="edge">
<title>3008017055904&#45;&gt;3008017069632</title>
<path fill="none" stroke="black" d="M333.54,-636.43C370.22,-626 428.34,-609.48 468.67,-598.01"/>
<polygon fill="black" stroke="black" points="469.42,-601.44 478.09,-595.34 467.51,-594.7 469.42,-601.44"/>
</g>
<!-- 3008017071504 -->
<g id="node18" class="node">
<title>3008017071504</title>
<polygon fill="lightgrey" stroke="black" points="346,-727.12 252,-727.12 252,-706.38 346,-706.38 346,-727.12"/>
<text xml:space="preserve" text-anchor="middle" x="299" y="-713.62" font-family="monospace" font-size="10.00">ReluBackward0</text>
</g>
<!-- 3008017071504&#45;&gt;3008017055904 -->
<g id="edge16" class="edge">
<title>3008017071504&#45;&gt;3008017055904</title>
<path fill="none" stroke="black" d="M299,-706.08C299,-696.46 299,-681.38 299,-669.04"/>
<polygon fill="black" stroke="black" points="302.5,-669.42 299,-659.42 295.5,-669.42 302.5,-669.42"/>
</g>
<!-- 3008017067664 -->
<g id="node19" class="node">
<title>3008017067664</title>
<polygon fill="lightgrey" stroke="black" points="376,-790.25 222,-790.25 222,-769.5 376,-769.5 376,-790.25"/>
<text xml:space="preserve" text-anchor="middle" x="299" y="-776.75" font-family="monospace" font-size="10.00">CudnnBatchNormBackward0</text>
</g>
<!-- 3008017067664&#45;&gt;3008017071504 -->
<g id="edge17" class="edge">
<title>3008017067664&#45;&gt;3008017071504</title>
<path fill="none" stroke="black" d="M299,-769.05C299,-760.9 299,-749.01 299,-738.73"/>
<polygon fill="black" stroke="black" points="302.5,-738.86 299,-728.86 295.5,-738.86 302.5,-738.86"/>
</g>
<!-- 3008017070160 -->
<g id="node20" class="node">
<title>3008017070160</title>
<polygon fill="lightgrey" stroke="black" points="231,-847 95,-847 95,-826.25 231,-826.25 231,-847"/>
<text xml:space="preserve" text-anchor="middle" x="163" y="-833.5" font-family="monospace" font-size="10.00">ConvolutionBackward0</text>
</g>
<!-- 3008017070160&#45;&gt;3008017067664 -->
<g id="edge18" class="edge">
<title>3008017070160&#45;&gt;3008017067664</title>
<path fill="none" stroke="black" d="M187.31,-825.84C208.78,-817.19 240.32,-804.5 264.41,-794.8"/>
<polygon fill="black" stroke="black" points="265.52,-798.13 273.49,-791.14 262.91,-791.63 265.52,-798.13"/>
</g>
<!-- 3008017059504 -->
<g id="node21" class="node">
<title>3008017059504</title>
<polygon fill="lightgrey" stroke="black" points="103,-910.12 3,-910.12 3,-889.38 103,-889.38 103,-910.12"/>
<text xml:space="preserve" text-anchor="middle" x="53" y="-896.62" font-family="monospace" font-size="10.00">AccumulateGrad</text>
</g>
<!-- 3008017059504&#45;&gt;3008017070160 -->
<g id="edge19" class="edge">
<title>3008017059504&#45;&gt;3008017070160</title>
<path fill="none" stroke="black" d="M70.67,-888.93C88.15,-879.22 115.16,-864.21 135.45,-852.93"/>
<polygon fill="black" stroke="black" points="137.01,-856.07 144.05,-848.16 133.61,-849.95 137.01,-856.07"/>
</g>
<!-- 3005650292640 -->
<g id="node22" class="node">
<title>3005650292640</title>
<polygon fill="lightblue" stroke="black" points="106,-986 0,-986 0,-952.5 106,-952.5 106,-986"/>
<text xml:space="preserve" text-anchor="middle" x="53" y="-972.5" font-family="monospace" font-size="10.00">layer1.0.weight</text>
<text xml:space="preserve" text-anchor="middle" x="53" y="-959.75" font-family="monospace" font-size="10.00"> (32, 1, 3, 3)</text>
</g>
<!-- 3005650292640&#45;&gt;3008017059504 -->
<g id="edge20" class="edge">
<title>3005650292640&#45;&gt;3008017059504</title>
<path fill="none" stroke="black" d="M53,-952.25C53,-943.15 53,-931.64 53,-921.82"/>
<polygon fill="black" stroke="black" points="56.5,-922.09 53,-912.09 49.5,-922.09 56.5,-922.09"/>
</g>
<!-- 3008017063392 -->
<g id="node23" class="node">
<title>3008017063392</title>
<polygon fill="lightgrey" stroke="black" points="221,-910.12 121,-910.12 121,-889.38 221,-889.38 221,-910.12"/>
<text xml:space="preserve" text-anchor="middle" x="171" y="-896.62" font-family="monospace" font-size="10.00">AccumulateGrad</text>
</g>
<!-- 3008017063392&#45;&gt;3008017070160 -->
<g id="edge21" class="edge">
<title>3008017063392&#45;&gt;3008017070160</title>
<path fill="none" stroke="black" d="M169.71,-888.93C168.65,-880.77 167.09,-868.88 165.75,-858.6"/>
<polygon fill="black" stroke="black" points="169.22,-858.18 164.45,-848.72 162.28,-859.09 169.22,-858.18"/>
</g>
<!-- 3005650292560 -->
<g id="node24" class="node">
<title>3005650292560</title>
<polygon fill="lightblue" stroke="black" points="218,-986 124,-986 124,-952.5 218,-952.5 218,-986"/>
<text xml:space="preserve" text-anchor="middle" x="171" y="-972.5" font-family="monospace" font-size="10.00">layer1.0.bias</text>
<text xml:space="preserve" text-anchor="middle" x="171" y="-959.75" font-family="monospace" font-size="10.00"> (32)</text>
</g>
<!-- 3005650292560&#45;&gt;3008017063392 -->
<g id="edge22" class="edge">
<title>3005650292560&#45;&gt;3008017063392</title>
<path fill="none" stroke="black" d="M171,-952.25C171,-943.15 171,-931.64 171,-921.82"/>
<polygon fill="black" stroke="black" points="174.5,-922.09 171,-912.09 167.5,-922.09 174.5,-922.09"/>
</g>
<!-- 3008017062000 -->
<g id="node25" class="node">
<title>3008017062000</title>
<polygon fill="lightgrey" stroke="black" points="349,-847 249,-847 249,-826.25 349,-826.25 349,-847"/>
<text xml:space="preserve" text-anchor="middle" x="299" y="-833.5" font-family="monospace" font-size="10.00">AccumulateGrad</text>
</g>
<!-- 3008017062000&#45;&gt;3008017067664 -->
<g id="edge23" class="edge">
<title>3008017062000&#45;&gt;3008017067664</title>
<path fill="none" stroke="black" d="M299,-825.84C299,-819.22 299,-810.22 299,-802.02"/>
<polygon fill="black" stroke="black" points="302.5,-802.09 299,-792.09 295.5,-802.09 302.5,-802.09"/>
</g>
<!-- 3005650292480 -->
<g id="node26" class="node">
<title>3005650292480</title>
<polygon fill="lightblue" stroke="black" points="352,-916.5 246,-916.5 246,-883 352,-883 352,-916.5"/>
<text xml:space="preserve" text-anchor="middle" x="299" y="-903" font-family="monospace" font-size="10.00">layer1.1.weight</text>
<text xml:space="preserve" text-anchor="middle" x="299" y="-890.25" font-family="monospace" font-size="10.00"> (32)</text>
</g>
<!-- 3005650292480&#45;&gt;3008017062000 -->
<g id="edge24" class="edge">
<title>3005650292480&#45;&gt;3008017062000</title>
<path fill="none" stroke="black" d="M299,-882.69C299,-875.35 299,-866.57 299,-858.71"/>
<polygon fill="black" stroke="black" points="302.5,-858.98 299,-848.98 295.5,-858.98 302.5,-858.98"/>
</g>
<!-- 3008017057152 -->
<g id="node27" class="node">
<title>3008017057152</title>
<polygon fill="lightgrey" stroke="black" points="467,-847 367,-847 367,-826.25 467,-826.25 467,-847"/>
<text xml:space="preserve" text-anchor="middle" x="417" y="-833.5" font-family="monospace" font-size="10.00">AccumulateGrad</text>
</g>
<!-- 3008017057152&#45;&gt;3008017067664 -->
<g id="edge25" class="edge">
<title>3008017057152&#45;&gt;3008017067664</title>
<path fill="none" stroke="black" d="M395.9,-825.84C377.61,-817.35 350.9,-804.95 330.14,-795.33"/>
<polygon fill="black" stroke="black" points="331.83,-792.25 321.29,-791.22 328.88,-798.6 331.83,-792.25"/>
</g>
<!-- 3005650292720 -->
<g id="node28" class="node">
<title>3005650292720</title>
<polygon fill="lightblue" stroke="black" points="464,-916.5 370,-916.5 370,-883 464,-883 464,-916.5"/>
<text xml:space="preserve" text-anchor="middle" x="417" y="-903" font-family="monospace" font-size="10.00">layer1.1.bias</text>
<text xml:space="preserve" text-anchor="middle" x="417" y="-890.25" font-family="monospace" font-size="10.00"> (32)</text>
</g>
<!-- 3005650292720&#45;&gt;3008017057152 -->
<g id="edge26" class="edge">
<title>3005650292720&#45;&gt;3008017057152</title>
<path fill="none" stroke="black" d="M417,-882.69C417,-875.35 417,-866.57 417,-858.71"/>
<polygon fill="black" stroke="black" points="420.5,-858.98 417,-848.98 413.5,-858.98 420.5,-858.98"/>
</g>
<!-- 3008017057056 -->
<g id="node29" class="node">
<title>3008017057056</title>
<polygon fill="lightgrey" stroke="black" points="512,-657.62 412,-657.62 412,-636.88 512,-636.88 512,-657.62"/>
<text xml:space="preserve" text-anchor="middle" x="462" y="-644.12" font-family="monospace" font-size="10.00">AccumulateGrad</text>
</g>
<!-- 3008017057056&#45;&gt;3008017069632 -->
<g id="edge27" class="edge">
<title>3008017057056&#45;&gt;3008017069632</title>
<path fill="none" stroke="black" d="M470.35,-636.43C477.9,-627.55 489.21,-614.26 498.43,-603.43"/>
<polygon fill="black" stroke="black" points="501.04,-605.76 504.86,-595.87 495.71,-601.22 501.04,-605.76"/>
</g>
<!-- 3005650292160 -->
<g id="node30" class="node">
<title>3005650292160</title>
<polygon fill="lightblue" stroke="black" points="515,-733.5 409,-733.5 409,-700 515,-700 515,-733.5"/>
<text xml:space="preserve" text-anchor="middle" x="462" y="-720" font-family="monospace" font-size="10.00">layer2.0.weight</text>
<text xml:space="preserve" text-anchor="middle" x="462" y="-707.25" font-family="monospace" font-size="10.00"> (64, 32, 3, 3)</text>
</g>
<!-- 3005650292160&#45;&gt;3008017057056 -->
<g id="edge28" class="edge">
<title>3005650292160&#45;&gt;3008017057056</title>
<path fill="none" stroke="black" d="M462,-699.75C462,-690.65 462,-679.14 462,-669.32"/>
<polygon fill="black" stroke="black" points="465.5,-669.59 462,-659.59 458.5,-669.59 465.5,-669.59"/>
</g>
<!-- 3008017060560 -->
<g id="node31" class="node">
<title>3008017060560</title>
<polygon fill="lightgrey" stroke="black" points="630,-657.62 530,-657.62 530,-636.88 630,-636.88 630,-657.62"/>
<text xml:space="preserve" text-anchor="middle" x="580" y="-644.12" font-family="monospace" font-size="10.00">AccumulateGrad</text>
</g>
<!-- 3008017060560&#45;&gt;3008017069632 -->
<g id="edge29" class="edge">
<title>3008017060560&#45;&gt;3008017069632</title>
<path fill="none" stroke="black" d="M569.4,-636.43C559.52,-627.29 544.59,-613.45 532.71,-602.45"/>
<polygon fill="black" stroke="black" points="535.19,-599.98 525.47,-595.75 530.43,-605.11 535.19,-599.98"/>
</g>
<!-- 3005650292080 -->
<g id="node32" class="node">
<title>3005650292080</title>
<polygon fill="lightblue" stroke="black" points="627,-733.5 533,-733.5 533,-700 627,-700 627,-733.5"/>
<text xml:space="preserve" text-anchor="middle" x="580" y="-720" font-family="monospace" font-size="10.00">layer2.0.bias</text>
<text xml:space="preserve" text-anchor="middle" x="580" y="-707.25" font-family="monospace" font-size="10.00"> (64)</text>
</g>
<!-- 3005650292080&#45;&gt;3008017060560 -->
<g id="edge30" class="edge">
<title>3005650292080&#45;&gt;3008017060560</title>
<path fill="none" stroke="black" d="M580,-699.75C580,-690.65 580,-679.14 580,-669.32"/>
<polygon fill="black" stroke="black" points="583.5,-669.59 580,-659.59 576.5,-669.59 583.5,-669.59"/>
</g>
<!-- 3008017058976 -->
<g id="node33" class="node">
<title>3008017058976</title>
<polygon fill="lightgrey" stroke="black" points="751,-594.5 651,-594.5 651,-573.75 751,-573.75 751,-594.5"/>
<text xml:space="preserve" text-anchor="middle" x="701" y="-581" font-family="monospace" font-size="10.00">AccumulateGrad</text>
</g>
<!-- 3008017058976&#45;&gt;3008017068192 -->
<g id="edge31" class="edge">
<title>3008017058976&#45;&gt;3008017068192</title>
<path fill="none" stroke="black" d="M701,-573.34C701,-566.72 701,-557.72 701,-549.52"/>
<polygon fill="black" stroke="black" points="704.5,-549.59 701,-539.59 697.5,-549.59 704.5,-549.59"/>
</g>
<!-- 3005650292000 -->
<g id="node34" class="node">
<title>3005650292000</title>
<polygon fill="lightblue" stroke="black" points="754,-664 648,-664 648,-630.5 754,-630.5 754,-664"/>
<text xml:space="preserve" text-anchor="middle" x="701" y="-650.5" font-family="monospace" font-size="10.00">layer2.1.weight</text>
<text xml:space="preserve" text-anchor="middle" x="701" y="-637.75" font-family="monospace" font-size="10.00"> (64)</text>
</g>
<!-- 3005650292000&#45;&gt;3008017058976 -->
<g id="edge32" class="edge">
<title>3005650292000&#45;&gt;3008017058976</title>
<path fill="none" stroke="black" d="M701,-630.19C701,-622.85 701,-614.07 701,-606.21"/>
<polygon fill="black" stroke="black" points="704.5,-606.48 701,-596.48 697.5,-606.48 704.5,-606.48"/>
</g>
<!-- 3008017059984 -->
<g id="node35" class="node">
<title>3008017059984</title>
<polygon fill="lightgrey" stroke="black" points="869,-594.5 769,-594.5 769,-573.75 869,-573.75 869,-594.5"/>
<text xml:space="preserve" text-anchor="middle" x="819" y="-581" font-family="monospace" font-size="10.00">AccumulateGrad</text>
</g>
<!-- 3008017059984&#45;&gt;3008017068192 -->
<g id="edge33" class="edge">
<title>3008017059984&#45;&gt;3008017068192</title>
<path fill="none" stroke="black" d="M797.9,-573.34C779.61,-564.85 752.9,-552.45 732.14,-542.83"/>
<polygon fill="black" stroke="black" points="733.83,-539.75 723.29,-538.72 730.88,-546.1 733.83,-539.75"/>
</g>
<!-- 3005650291920 -->
<g id="node36" class="node">
<title>3005650291920</title>
<polygon fill="lightblue" stroke="black" points="866,-664 772,-664 772,-630.5 866,-630.5 866,-664"/>
<text xml:space="preserve" text-anchor="middle" x="819" y="-650.5" font-family="monospace" font-size="10.00">layer2.1.bias</text>
<text xml:space="preserve" text-anchor="middle" x="819" y="-637.75" font-family="monospace" font-size="10.00"> (64)</text>
</g>
<!-- 3005650291920&#45;&gt;3008017059984 -->
<g id="edge34" class="edge">
<title>3005650291920&#45;&gt;3008017059984</title>
<path fill="none" stroke="black" d="M819,-630.19C819,-622.85 819,-614.07 819,-606.21"/>
<polygon fill="black" stroke="black" points="822.5,-606.48 819,-596.48 815.5,-606.48 822.5,-606.48"/>
</g>
<!-- 3008017066752 -->
<g id="node37" class="node">
<title>3008017066752</title>
<polygon fill="lightgrey" stroke="black" points="872,-335.62 796,-335.62 796,-314.88 872,-314.88 872,-335.62"/>
<text xml:space="preserve" text-anchor="middle" x="834" y="-322.12" font-family="monospace" font-size="10.00">TBackward0</text>
</g>
<!-- 3008017066752&#45;&gt;3008017068960 -->
<g id="edge35" class="edge">
<title>3008017066752&#45;&gt;3008017068960</title>
<path fill="none" stroke="black" d="M821.11,-314.58C806.75,-303.81 783.3,-286.23 766.03,-273.27"/>
<polygon fill="black" stroke="black" points="768.47,-270.73 758.37,-267.53 764.27,-276.33 768.47,-270.73"/>
</g>
<!-- 3008017057968 -->
<g id="node38" class="node">
<title>3008017057968</title>
<polygon fill="lightgrey" stroke="black" points="914,-405.12 814,-405.12 814,-384.38 914,-384.38 914,-405.12"/>
<text xml:space="preserve" text-anchor="middle" x="864" y="-391.62" font-family="monospace" font-size="10.00">AccumulateGrad</text>
</g>
<!-- 3008017057968&#45;&gt;3008017066752 -->
<g id="edge36" class="edge">
<title>3008017057968&#45;&gt;3008017066752</title>
<path fill="none" stroke="black" d="M859.7,-384.08C855.34,-374.25 848.44,-358.75 842.9,-346.27"/>
<polygon fill="black" stroke="black" points="846.16,-345 838.91,-337.29 839.77,-347.85 846.16,-345"/>
</g>
<!-- 3005650291680 -->
<g id="node39" class="node">
<title>3005650291680</title>
<polygon fill="lightblue" stroke="black" points="911,-481 817,-481 817,-447.5 911,-447.5 911,-481"/>
<text xml:space="preserve" text-anchor="middle" x="864" y="-467.5" font-family="monospace" font-size="10.00">fc1.weight</text>
<text xml:space="preserve" text-anchor="middle" x="864" y="-454.75" font-family="monospace" font-size="10.00"> (600, 43648)</text>
</g>
<!-- 3005650291680&#45;&gt;3008017057968 -->
<g id="edge37" class="edge">
<title>3005650291680&#45;&gt;3008017057968</title>
<path fill="none" stroke="black" d="M864,-447.25C864,-438.15 864,-426.64 864,-416.82"/>
<polygon fill="black" stroke="black" points="867.5,-417.09 864,-407.09 860.5,-417.09 867.5,-417.09"/>
</g>
<!-- 3008017056432 -->
<g id="node40" class="node">
<title>3008017056432</title>
<polygon fill="lightgrey" stroke="black" points="914,-266.12 838,-266.12 838,-245.38 914,-245.38 914,-266.12"/>
<text xml:space="preserve" text-anchor="middle" x="876" y="-252.62" font-family="monospace" font-size="10.00">TBackward0</text>
</g>
<!-- 3008017056432&#45;&gt;3008017061568 -->
<g id="edge38" class="edge">
<title>3008017056432&#45;&gt;3008017061568</title>
<path fill="none" stroke="black" d="M854.79,-244.93C833.33,-234.99 799.92,-219.52 775.39,-208.16"/>
<polygon fill="black" stroke="black" points="777.07,-205.08 766.53,-204.06 774.13,-211.44 777.07,-205.08"/>
</g>
<!-- 3008017063344 -->
<g id="node41" class="node">
<title>3008017063344</title>
<polygon fill="lightgrey" stroke="black" points="990,-335.62 890,-335.62 890,-314.88 990,-314.88 990,-335.62"/>
<text xml:space="preserve" text-anchor="middle" x="940" y="-322.12" font-family="monospace" font-size="10.00">AccumulateGrad</text>
</g>
<!-- 3008017063344&#45;&gt;3008017056432 -->
<g id="edge39" class="edge">
<title>3008017063344&#45;&gt;3008017056432</title>
<path fill="none" stroke="black" d="M930.83,-314.58C920.95,-304.15 905,-287.33 892.84,-274.51"/>
<polygon fill="black" stroke="black" points="895.61,-272.35 886.19,-267.5 890.53,-277.17 895.61,-272.35"/>
</g>
<!-- 3005650291760 -->
<g id="node42" class="node">
<title>3005650291760</title>
<polygon fill="lightblue" stroke="black" points="1014,-411.5 932,-411.5 932,-378 1014,-378 1014,-411.5"/>
<text xml:space="preserve" text-anchor="middle" x="973" y="-398" font-family="monospace" font-size="10.00">fc2.weight</text>
<text xml:space="preserve" text-anchor="middle" x="973" y="-385.25" font-family="monospace" font-size="10.00"> (120, 600)</text>
</g>
<!-- 3005650291760&#45;&gt;3008017063344 -->
<g id="edge40" class="edge">
<title>3005650291760&#45;&gt;3008017063344</title>
<path fill="none" stroke="black" d="M965.18,-377.75C960.58,-368.35 954.73,-356.37 949.82,-346.34"/>
<polygon fill="black" stroke="black" points="953,-344.88 945.47,-337.43 946.71,-347.95 953,-344.88"/>
</g>
<!-- 3008017056000 -->
<g id="node43" class="node">
<title>3008017056000</title>
<polygon fill="lightgrey" stroke="black" points="979,-203 903,-203 903,-182.25 979,-182.25 979,-203"/>
<text xml:space="preserve" text-anchor="middle" x="941" y="-189.5" font-family="monospace" font-size="10.00">TBackward0</text>
</g>
<!-- 3008017056000&#45;&gt;3008017065120 -->
<g id="edge41" class="edge">
<title>3008017056000&#45;&gt;3008017065120</title>
<path fill="none" stroke="black" d="M905.78,-181.84C873.52,-172.87 825.57,-159.54 790.24,-149.73"/>
<polygon fill="black" stroke="black" points="791.28,-146.38 780.7,-147.08 789.4,-153.13 791.28,-146.38"/>
</g>
<!-- 3008017056048 -->
<g id="node44" class="node">
<title>3008017056048</title>
<polygon fill="lightgrey" stroke="black" points="1083,-266.12 983,-266.12 983,-245.38 1083,-245.38 1083,-266.12"/>
<text xml:space="preserve" text-anchor="middle" x="1033" y="-252.62" font-family="monospace" font-size="10.00">AccumulateGrad</text>
</g>
<!-- 3008017056048&#45;&gt;3008017056000 -->
<g id="edge42" class="edge">
<title>3008017056048&#45;&gt;3008017056000</title>
<path fill="none" stroke="black" d="M1018.22,-244.93C1003.87,-235.39 981.84,-220.76 964.98,-209.56"/>
<polygon fill="black" stroke="black" points="967.27,-206.88 957.01,-204.26 963.4,-212.71 967.27,-206.88"/>
</g>
<!-- 3005650291280 -->
<g id="node45" class="node">
<title>3005650291280</title>
<polygon fill="lightblue" stroke="black" points="1084,-342 1008,-342 1008,-308.5 1084,-308.5 1084,-342"/>
<text xml:space="preserve" text-anchor="middle" x="1046" y="-328.5" font-family="monospace" font-size="10.00">fc3.weight</text>
<text xml:space="preserve" text-anchor="middle" x="1046" y="-315.75" font-family="monospace" font-size="10.00"> (1, 120)</text>
</g>
<!-- 3005650291280&#45;&gt;3008017056048 -->
<g id="edge43" class="edge">
<title>3005650291280&#45;&gt;3008017056048</title>
<path fill="none" stroke="black" d="M1042.92,-308.25C1041.17,-299.15 1038.95,-287.64 1037.06,-277.82"/>
<polygon fill="black" stroke="black" points="1040.51,-277.22 1035.18,-268.06 1033.63,-278.54 1040.51,-277.22"/>
</g>
</g>
</svg>
